<svg width="745" height="187" viewBox="0 0 745 187" fill="none" xmlns="http://www.w3.org/2000/svg">
<path fill-rule="evenodd" clip-rule="evenodd" d="M705.625 186.488H38.5391C17.2539 186.488 0 169.234 0 147.953V38.5352C0 17.2539 17.2539 0 38.5391 0H705.625C726.91 0 744.164 17.2539 744.164 38.5352V147.953C744.164 169.234 726.91 186.488 705.625 186.488Z" fill="#FFE808"/>
<path d="M159.168 129.754C157.699 130.574 155.793 130.125 154.914 128.754C154.039 127.383 154.515 125.605 155.984 124.785C161.101 121.93 165.121 118.117 168.019 113.754C171.703 108.207 173.593 101.769 173.64 95.2773C173.687 88.7695 171.89 82.207 168.195 76.4335C165.187 71.7304 160.914 67.5429 155.355 64.3242C153.902 63.4843 153.449 61.7031 154.351 60.3437C155.25 58.9843 157.16 58.5624 158.613 59.4023C165.062 63.1327 170.019 67.996 173.515 73.4648C177.801 80.164 179.89 87.7656 179.836 95.3007C179.781 102.848 177.582 110.336 173.293 116.793C169.883 121.926 165.164 126.406 159.168 129.754Z" fill="#006AA7"/>
<path d="M43.1223 129.016C40.6145 130.516 37.3645 129.699 35.8606 127.188C34.3606 124.68 35.177 121.43 37.6887 119.93C41.6809 117.543 44.8176 114.359 47.0715 110.723C49.9582 106.066 51.4387 100.66 51.4738 95.2032C51.5129 89.7188 50.0988 84.1954 47.2004 79.3399C44.8371 75.3868 41.4856 71.8672 37.1184 69.1602C34.634 67.625 33.8645 64.3633 35.3996 61.8789C36.9348 59.3907 40.1926 58.6211 42.6809 60.1563C48.5676 63.8047 53.0949 68.5625 56.2863 73.9063C60.2004 80.4571 62.1066 87.8868 62.0559 95.2461C62.0051 102.629 59.9934 109.961 56.0754 116.281C52.9465 121.328 48.6184 125.734 43.1223 129.016Z" fill="#006AA7"/>
<path d="M61.2591 140.246C58.7278 141.711 55.4856 140.848 54.0208 138.317C52.552 135.785 53.4192 132.543 55.9505 131.074C62.3176 127.395 67.2278 122.407 70.6458 116.711C74.5208 110.254 76.5051 102.875 76.5598 95.4456C76.6106 87.9925 74.72 80.4729 70.845 73.762C67.2981 67.6292 62.0872 62.1604 55.1731 58.012C52.6653 56.512 51.8489 53.2581 53.3489 50.7503C54.8489 48.2424 58.0989 47.426 60.6067 48.926C69.1575 54.055 75.6106 60.8362 80.013 68.4534C84.8489 76.8206 87.2044 86.1917 87.138 95.4885C87.0755 104.809 84.5833 114.059 79.7317 122.149C75.4114 129.352 69.2356 135.637 61.2591 140.246Z" fill="#006AA7"/>
<path d="M83.0615 152.871C80.5498 154.383 77.2919 153.574 75.7763 151.066C74.2646 148.559 75.0732 145.297 77.5849 143.785C85.1005 139.242 91.0419 133.207 95.3701 126.305C101.101 117.168 104.042 106.496 104.112 95.7265C104.186 84.9375 101.378 74.0507 95.6083 64.5039C91.1044 57.0429 84.7802 50.4023 76.6083 45.2773C74.1318 43.7187 73.3896 40.4492 74.9482 37.9765C76.5029 35.4999 79.7763 34.7578 82.249 36.3164C91.9013 42.3671 99.3701 50.2148 104.698 59.0273C111.476 70.25 114.78 83.0625 114.694 95.7656C114.608 108.492 111.124 121.117 104.331 131.945C99.1435 140.223 92.0341 147.449 83.0615 152.871Z" fill="#006AA7"/>
<path d="M130.27 29.4766C130.27 28.3711 131.168 27.4727 132.273 27.4727C133.379 27.4727 134.277 28.3711 134.277 29.4766V159.656C134.277 160.766 133.379 161.66 132.273 161.66C131.168 161.66 130.27 160.766 130.27 159.656V29.4766Z" fill="#006AA7"/>
<path d="M268.092 134.938L267.56 138.637C266.611 138.172 265.638 137.824 264.619 137.586C263.599 137.348 262.564 137.23 261.498 137.23C260.263 137.23 259.24 137.48 258.455 137.992C257.658 138.496 257.22 139.172 257.146 140.016C257.076 140.762 257.322 141.43 257.877 142.016C258.435 142.602 259.642 143.348 261.49 144.25C263.951 145.445 265.615 146.602 266.478 147.73C267.342 148.852 267.701 150.207 267.556 151.801C267.349 154.02 266.295 155.785 264.384 157.094C262.482 158.402 260.002 159.059 256.951 159.059C255.838 159.059 254.752 158.953 253.681 158.75C252.611 158.547 251.592 158.238 250.611 157.848L251.111 154.035C252.162 154.59 253.24 155.012 254.31 155.289C255.388 155.562 256.435 155.703 257.451 155.703C258.947 155.703 260.162 155.379 261.099 154.734C262.045 154.094 262.564 153.223 262.666 152.133C262.74 151.32 262.545 150.625 262.068 150.039C261.603 149.453 260.455 148.688 258.615 147.754C256.162 146.496 254.506 145.332 253.658 144.25C252.806 143.168 252.443 141.902 252.58 140.438C252.756 138.523 253.713 136.969 255.439 135.781C257.166 134.602 259.381 134.012 262.08 134.012C263.064 134.012 264.064 134.082 265.076 134.238C266.084 134.383 267.088 134.617 268.092 134.938ZM286.842 137.18C284.67 137.18 282.826 138.031 281.318 139.738C279.814 141.445 278.931 143.699 278.674 146.484C278.42 149.25 278.884 151.484 280.076 153.191C281.267 154.898 282.955 155.754 285.123 155.754C287.326 155.754 289.177 154.906 290.666 153.223C292.154 151.543 293.029 149.297 293.287 146.484C293.549 143.668 293.088 141.406 291.912 139.715C290.736 138.027 289.041 137.18 286.842 137.18ZM287.111 133.699C290.877 133.699 293.736 134.848 295.685 137.141C297.642 139.438 298.435 142.57 298.068 146.535C297.705 150.469 296.326 153.598 293.927 155.906C291.537 158.215 288.47 159.367 284.74 159.367C281.009 159.367 278.166 158.215 276.217 155.914C274.259 153.613 273.467 150.484 273.834 146.535C274.201 142.57 275.568 139.438 277.951 137.141C280.326 134.848 283.381 133.699 287.111 133.699ZM308.088 122.348H312.615L309.248 158.773H304.72L308.088 122.348ZM320.646 134.297H325.174L323.924 147.844C323.689 150.371 323.955 152.23 324.732 153.418C325.502 154.613 326.81 155.207 328.654 155.207C330.787 155.207 332.486 154.387 333.759 152.754C335.033 151.117 335.814 148.738 336.103 145.609L337.146 134.297H341.674L339.412 158.773H335.267L335.705 154.035C334.646 155.754 333.373 157.027 331.9 157.855C330.424 158.695 328.713 159.109 326.759 159.109C323.998 159.109 321.986 158.246 320.724 156.516C319.463 154.785 318.99 152.23 319.302 148.867L320.646 134.297ZM368.545 135.129L367.826 139.035C367.127 138.621 366.326 138.301 365.451 138.082C364.58 137.863 363.654 137.746 362.685 137.746C360.158 137.746 358.045 138.555 356.334 140.164C354.615 141.781 353.642 143.883 353.4 146.484C353.154 149.152 353.713 151.289 355.084 152.906C356.447 154.516 358.396 155.32 360.916 155.32C361.842 155.32 362.771 155.207 363.728 154.973C364.677 154.742 365.658 154.402 366.666 153.938L366.533 157.938C365.482 158.32 364.4 158.605 363.287 158.785C362.181 158.969 361.041 159.059 359.881 159.059C356.134 159.059 353.232 157.922 351.174 155.645C349.115 153.363 348.256 150.348 348.607 146.582C348.951 142.836 350.4 139.82 352.951 137.539C355.506 135.254 358.709 134.109 362.545 134.109C363.674 134.109 364.74 134.188 365.74 134.359C366.74 134.523 367.674 134.781 368.545 135.129ZM356.588 158.773H358.502L358.275 161.207H358.709C360.388 161.207 361.646 161.57 362.498 162.309C363.342 163.051 363.697 164.098 363.572 165.465C363.439 166.895 362.857 167.984 361.83 168.723C360.802 169.473 359.345 169.844 357.478 169.844C356.631 169.844 355.72 169.762 354.736 169.609C353.752 169.445 352.658 169.203 351.47 168.867L351.677 166.633C353.111 166.953 354.267 167.188 355.15 167.332C356.029 167.488 356.728 167.562 357.232 167.562C358.263 167.562 359.037 167.398 359.537 167.066C360.049 166.73 360.334 166.211 360.396 165.512C360.467 164.742 360.263 164.172 359.763 163.824C359.275 163.473 358.447 163.301 357.295 163.301C357.009 163.301 356.787 163.301 356.65 163.312C356.506 163.316 356.365 163.336 356.217 163.352L356.588 158.773ZM386.068 137.18C383.9 137.18 382.056 138.031 380.549 139.738C379.041 141.445 378.162 143.699 377.9 146.484C377.646 149.25 378.115 151.484 379.306 153.191C380.498 154.898 382.181 155.754 384.353 155.754C386.556 155.754 388.404 154.906 389.892 153.223C391.381 151.543 392.256 149.297 392.513 146.484C392.775 143.668 392.318 141.406 391.142 139.715C389.963 138.027 388.271 137.18 386.068 137.18ZM386.342 133.699C390.107 133.699 392.967 134.848 394.916 137.141C396.873 139.438 397.666 142.57 397.299 146.535C396.935 150.469 395.556 153.598 393.158 155.906C390.763 158.215 387.701 159.367 383.97 159.367C380.24 159.367 377.396 158.215 375.447 155.914C373.486 153.613 372.697 150.484 373.06 146.535C373.427 142.57 374.799 139.438 377.181 137.141C379.556 134.848 382.611 133.699 386.342 133.699ZM392.22 124.434H394.365C393.806 126.02 393.103 127.207 392.248 127.996C391.404 128.781 390.392 129.176 389.236 129.176C389.009 129.176 388.767 129.16 388.502 129.117C388.24 129.078 387.963 129.012 387.658 128.938L385.416 128.238C385.107 128.148 384.853 128.086 384.662 128.051C384.47 128.02 384.291 128.004 384.131 128.004C383.607 128.004 383.15 128.148 382.771 128.434C382.388 128.719 382.052 129.16 381.783 129.742H379.588C380.131 128.176 380.826 126.996 381.677 126.207C382.533 125.418 383.556 125.031 384.759 125.031C385.06 125.031 385.338 125.047 385.595 125.078C385.845 125.109 386.076 125.16 386.295 125.223L388.537 125.965C388.763 126.035 388.986 126.102 389.209 126.141C389.427 126.184 389.627 126.199 389.822 126.199C390.342 126.199 390.81 126.055 391.205 125.762C391.603 125.469 391.947 125.02 392.22 124.434ZM232.701 145.754L232.529 147.605H215.193C215.131 150.227 215.779 152.258 217.142 153.711C218.509 155.164 220.474 155.891 223.025 155.891C224.158 155.891 225.283 155.742 226.424 155.449C227.564 155.156 228.744 154.695 229.982 154.078L229.619 157.988C228.494 158.449 227.287 158.789 225.99 159.02C224.693 159.254 223.267 159.367 221.728 159.367C218.013 159.367 215.189 158.199 213.267 155.855C211.338 153.516 210.56 150.332 210.935 146.301C211.283 142.52 212.615 139.473 214.931 137.164C217.252 134.855 220.103 133.699 223.502 133.699C226.713 133.699 229.131 134.773 230.771 136.922C232.4 139.059 233.049 142.008 232.701 145.754ZM228.549 144.586C228.615 142.137 228.162 140.262 227.193 138.953C226.217 137.645 224.806 136.984 222.963 136.984C221.142 136.984 219.564 137.668 218.252 139.023C216.935 140.383 216.049 142.234 215.595 144.586H228.549ZM425.252 145.754L425.08 147.605H407.744C407.681 150.227 408.33 152.258 409.693 153.711C411.06 155.164 413.025 155.891 415.576 155.891C416.709 155.891 417.834 155.742 418.974 155.449C420.115 155.156 421.295 154.695 422.533 154.078L422.17 157.988C421.045 158.449 419.838 158.789 418.541 159.02C417.244 159.254 415.818 159.367 414.283 159.367C410.564 159.367 407.74 158.199 405.818 155.855C403.888 153.516 403.111 150.332 403.486 146.301C403.834 142.52 405.166 139.473 407.482 137.164C409.802 134.855 412.654 133.699 416.052 133.699C419.263 133.699 421.681 134.773 423.318 136.922C424.951 139.059 425.599 142.008 425.252 145.754ZM421.099 144.586C421.166 142.137 420.713 140.262 419.744 138.953C418.767 137.645 417.357 136.984 415.513 136.984C413.693 136.984 412.115 137.668 410.806 139.023C409.486 140.383 408.599 142.234 408.146 144.586H421.099ZM446.842 134.938L446.314 138.637C445.365 138.172 444.388 137.824 443.369 137.586C442.353 137.348 441.314 137.23 440.252 137.23C439.017 137.23 437.994 137.48 437.205 137.992C436.412 138.496 435.974 139.172 435.896 140.016C435.826 140.762 436.076 141.43 436.631 142.016C437.185 142.602 438.392 143.348 440.244 144.25C442.701 145.445 444.365 146.602 445.228 147.73C446.092 148.852 446.455 150.207 446.306 151.801C446.103 154.02 445.045 155.785 443.134 157.094C441.236 158.402 438.752 159.059 435.705 159.059C434.592 159.059 433.506 158.953 432.435 158.75C431.365 158.547 430.345 158.238 429.365 157.848L429.865 154.035C430.916 154.59 431.99 155.012 433.064 155.289C434.142 155.562 435.185 155.703 436.201 155.703C437.697 155.703 438.916 155.379 439.853 154.734C440.799 154.094 441.314 153.223 441.416 152.133C441.49 151.32 441.295 150.625 440.822 150.039C440.357 149.453 439.209 148.688 437.365 147.754C434.916 146.496 433.259 145.332 432.408 144.25C431.556 143.168 431.197 141.902 431.33 140.438C431.509 138.523 432.463 136.969 434.189 135.781C435.916 134.602 438.134 134.012 440.834 134.012C441.814 134.012 442.818 134.082 443.826 134.238C444.838 134.383 445.838 134.617 446.842 134.938ZM479.31 146.68C476.58 146.68 474.451 147.113 472.916 147.965C471.384 148.828 470.549 150.055 470.4 151.656C470.283 152.883 470.607 153.883 471.357 154.672C472.111 155.457 473.146 155.848 474.463 155.848C476.537 155.848 478.267 155.184 479.65 153.852C481.021 152.516 481.814 150.73 482.021 148.492L482.189 146.68H479.31ZM486.826 143.895L485.451 158.773H481.404L481.783 154.68C480.693 156.176 479.412 157.289 477.947 158.012C476.49 158.742 474.83 159.109 472.994 159.109C470.662 159.109 468.838 158.441 467.521 157.109C466.205 155.777 465.65 154.035 465.849 151.891C466.095 149.227 467.373 147.184 469.674 145.777C471.982 144.363 475.185 143.656 479.283 143.656H482.467L482.509 143.18C482.685 141.277 482.287 139.789 481.314 138.723C480.342 137.66 478.908 137.129 477.025 137.129C475.959 137.129 474.838 137.301 473.67 137.645C472.49 137.984 471.267 138.496 469.998 139.18L470.295 135.465C471.576 134.879 472.9 134.434 474.279 134.141C475.654 133.848 477.107 133.699 478.65 133.699C481.681 133.699 483.877 134.555 485.248 136.254C486.611 137.953 487.142 140.496 486.826 143.895ZM514.049 135.129L513.33 139.035C512.627 138.621 511.826 138.301 510.955 138.082C510.08 137.863 509.154 137.746 508.189 137.746C505.662 137.746 503.549 138.555 501.838 140.164C500.119 141.781 499.146 143.883 498.904 146.484C498.658 149.152 499.217 151.289 500.588 152.906C501.951 154.516 503.9 155.32 506.42 155.32C507.345 155.32 508.275 155.207 509.232 154.973C510.177 154.742 511.162 154.402 512.17 153.938L512.037 157.938C510.986 158.32 509.904 158.605 508.787 158.785C507.681 158.969 506.545 159.059 505.381 159.059C501.634 159.059 498.736 157.922 496.677 155.645C494.619 153.363 493.759 150.348 494.107 146.582C494.455 142.836 495.904 139.82 498.455 137.539C501.006 135.254 504.209 134.109 508.045 134.109C509.177 134.109 510.24 134.188 511.24 134.359C512.24 134.523 513.177 134.781 514.049 135.129ZM521.002 134.297H525.529L524.279 147.844C524.045 150.371 524.314 152.23 525.088 153.418C525.857 154.613 527.166 155.207 529.009 155.207C531.138 155.207 532.842 154.387 534.115 152.754C535.388 151.117 536.17 148.738 536.459 145.609L537.502 134.297H542.029L539.767 158.773H535.623L536.06 154.035C534.998 155.754 533.728 157.027 532.252 157.855C530.779 158.695 529.064 159.109 527.115 159.109C524.353 159.109 522.342 158.246 521.08 156.516C519.818 154.785 519.345 152.23 519.658 148.867L521.002 134.297ZM534.49 122.582H538.967L531.4 131.035H528.83L534.49 122.582ZM565.486 134.938L564.959 138.637C564.009 138.172 563.033 137.824 562.017 137.586C560.998 137.348 559.959 137.23 558.896 137.23C557.662 137.23 556.638 137.48 555.853 137.992C555.056 138.496 554.619 139.172 554.541 140.016C554.474 140.762 554.72 141.43 555.275 142.016C555.83 142.602 557.037 143.348 558.888 144.25C561.345 145.445 563.013 146.602 563.873 147.73C564.74 148.852 565.099 150.207 564.955 151.801C564.748 154.02 563.689 155.785 561.783 157.094C559.881 158.402 557.4 159.059 554.349 159.059C553.236 159.059 552.15 158.953 551.08 158.75C550.009 158.547 548.99 158.238 548.009 157.848L548.506 154.035C549.56 154.59 550.634 155.012 551.709 155.289C552.787 155.562 553.83 155.703 554.845 155.703C556.342 155.703 557.56 155.379 558.498 154.734C559.443 154.094 559.959 153.223 560.064 152.133C560.138 151.32 559.943 150.625 559.467 150.039C559.002 149.453 557.853 148.688 556.013 147.754C553.56 146.496 551.904 145.332 551.052 144.25C550.201 143.168 549.842 141.902 549.974 140.438C550.15 138.523 551.111 136.969 552.834 135.781C554.56 134.602 556.779 134.012 559.478 134.012C560.463 134.012 561.463 134.082 562.47 134.238C563.482 134.383 564.486 134.617 565.486 134.938ZM581.392 126.727L580.693 134.297H586.552L586.232 137.746H580.373L579.201 150.445C579.025 152.348 579.177 153.695 579.662 154.5C580.142 155.305 581.013 155.703 582.283 155.703C582.599 155.703 582.967 155.664 583.392 155.574C583.814 155.484 584.291 155.344 584.81 155.156L584.529 158.727C583.916 158.887 583.295 159.012 582.677 159.086C582.052 159.164 581.431 159.207 580.795 159.207C578.318 159.207 576.603 158.562 575.65 157.289C574.693 156.012 574.353 153.875 574.634 150.867L575.845 137.746H570.92L571.24 134.297H576.31L576.869 128.246L581.392 126.727ZM593.619 134.297H598.146L595.884 158.773H591.357L593.619 134.297ZM594.654 123.078H599.181L598.763 127.605H594.236L594.654 123.078ZM624.779 135.129L624.06 139.035C623.361 138.621 622.56 138.301 621.685 138.082C620.814 137.863 619.888 137.746 618.92 137.746C616.392 137.746 614.279 138.555 612.572 140.164C610.849 141.781 609.877 143.883 609.638 146.484C609.388 149.152 609.951 151.289 611.322 152.906C612.681 154.516 614.631 155.32 617.15 155.32C618.076 155.32 619.006 155.207 619.963 154.973C620.912 154.742 621.892 154.402 622.904 153.938L622.771 157.938C621.72 158.32 620.634 158.605 619.521 158.785C618.416 158.969 617.279 159.059 616.115 159.059C612.369 159.059 609.467 157.922 607.412 155.645C605.353 153.363 604.494 150.348 604.842 146.582C605.185 142.836 606.634 139.82 609.189 137.539C611.74 135.254 614.943 134.109 618.779 134.109C619.908 134.109 620.974 134.188 621.974 134.359C622.974 134.523 623.908 134.781 624.779 135.129ZM642.017 146.68C639.287 146.68 637.162 147.113 635.627 147.965C634.092 148.828 633.256 150.055 633.107 151.656C632.994 152.883 633.314 153.883 634.064 154.672C634.818 155.457 635.857 155.848 637.174 155.848C639.248 155.848 640.974 155.184 642.357 153.852C643.732 152.516 644.521 150.73 644.728 148.492L644.896 146.68H642.017ZM649.537 143.895L648.158 158.773H644.111L644.49 154.68C643.4 156.176 642.119 157.289 640.654 158.012C639.197 158.742 637.537 159.109 635.701 159.109C633.369 159.109 631.545 158.441 630.228 157.109C628.912 155.777 628.361 154.035 628.556 151.891C628.802 149.227 630.08 147.184 632.381 145.777C634.689 144.363 637.892 143.656 641.99 143.656H645.177L645.22 143.18C645.396 141.277 644.998 139.789 644.021 138.723C643.049 137.66 641.619 137.129 639.732 137.129C638.666 137.129 637.545 137.301 636.377 137.645C635.201 137.984 633.974 138.496 632.705 139.18L633.002 135.465C634.283 134.879 635.607 134.434 636.986 134.141C638.361 133.848 639.814 133.699 641.357 133.699C644.388 133.699 646.588 134.555 647.959 136.254C649.322 137.953 649.849 140.496 649.537 143.895ZM673.342 134.938L672.814 138.637C671.865 138.172 670.888 137.824 669.873 137.586C668.853 137.348 667.814 137.23 666.752 137.23C665.517 137.23 664.494 137.48 663.705 137.992C662.912 138.496 662.474 139.172 662.396 140.016C662.326 140.762 662.576 141.43 663.131 142.016C663.685 142.602 664.892 143.348 666.744 144.25C669.201 145.445 670.869 146.602 671.728 147.73C672.595 148.852 672.955 150.207 672.81 151.801C672.603 154.02 671.545 155.785 669.638 157.094C667.736 158.402 665.252 159.059 662.205 159.059C661.092 159.059 660.006 158.953 658.935 158.75C657.865 158.547 656.845 158.238 655.865 157.848L656.365 154.035C657.416 154.59 658.49 155.012 659.564 155.289C660.642 155.562 661.689 155.703 662.705 155.703C664.197 155.703 665.416 155.379 666.353 154.734C667.299 154.094 667.818 153.223 667.916 152.133C667.994 151.32 667.799 150.625 667.322 150.039C666.857 149.453 665.709 148.688 663.869 147.754C661.416 146.496 659.759 145.332 658.908 144.25C658.056 143.168 657.697 141.902 657.83 140.438C658.009 138.523 658.967 136.969 660.693 135.781C662.416 134.602 664.634 134.012 667.334 134.012C668.318 134.012 669.318 134.082 670.33 134.238C671.338 134.383 672.342 134.617 673.342 134.938Z" fill="#006AA7"/>
<path d="M224.234 30.0166L205.484 111.063H225.281L244.031 30.0166H224.234Z" fill="#006AA7"/>
<path d="M238.783 87.4072C236.689 99.5322 241.674 112.626 264.096 112.626C280.877 112.626 289.533 104.579 292.143 93.6572C295.158 80.5635 291.361 72.6416 276.814 62.0791C267.768 55.5947 266.314 52.5791 267.111 48.501C267.893 44.2979 270.127 42.1416 274.049 42.1416C280.486 42.1416 280.877 48.1416 280.346 52.4697H298.705C300.283 42.7354 296.08 28.5635 274.189 28.5635C258.189 28.5635 250.33 36.9697 248.221 47.5479C246.002 59.3135 250.846 66.1572 263.299 75.4072C271.955 81.8916 273.799 86.0947 272.611 91.7354C271.689 96.2979 269.08 99.0635 264.486 99.0635C258.064 99.0635 256.877 93.1729 257.533 87.4072H238.783Z" fill="#006AA7"/>
<path d="M337.771 28.5635C321.521 28.5635 309.318 38.8916 302.646 67.1104C294.896 99.1729 303.037 112.626 324.006 112.626C340.787 112.626 352.459 103.626 359.678 73.126C367.537 39.8604 357.568 28.5635 337.771 28.5635ZM336.99 42.8604C345.115 42.8604 344.459 51.626 339.615 71.5635C334.506 93.2979 330.959 98.3291 325.053 98.3291C317.709 98.3291 317.709 89.2041 322.443 68.9229C327.021 49.7041 330.834 42.8604 336.99 42.8604Z" fill="#006AA7"/>
<path d="M369.504 72.0322L365.973 86.8135H396.129L399.535 72.0322H369.504Z" fill="#006AA7"/>
<path d="M466.663 65.0791H438.726L435.32 79.3604H443.851L442.663 84.7666C440.695 93.4072 438.21 98.3291 432.054 98.3291C424.57 98.3291 424.054 89.5635 428.507 69.876C432.96 49.9385 437.554 42.7354 443.976 42.7354C450.538 42.7354 449.882 48.501 449.351 52.3447H469.023C470.195 43.9385 467.32 28.5635 445.163 28.5635C427.976 28.5635 415.523 38.6572 408.585 69.0322C401.898 98.6885 408.054 112.626 424.445 112.626C432.054 112.626 437.554 110.47 441.882 104.579C441.617 106.267 441.101 109.735 441.226 111.063H456.038L466.663 65.0791Z" fill="#006AA7"/>
<path d="M520.281 76.3604L523.703 61.5947H497.469L501.406 44.7822H528.672L532.219 30.0166H485.281L466.531 111.063H515.047L520.547 96.4072H489.469L494.062 76.3604H520.281Z" fill="#006AA7"/>
<path d="M526.053 87.4072C523.959 99.5322 528.943 112.626 551.365 112.626C568.146 112.626 576.803 104.579 579.412 93.6572C582.428 80.5635 578.631 72.6416 564.084 62.0791C555.037 55.5947 553.584 52.5791 554.381 48.501C555.162 44.2979 557.396 42.1416 561.318 42.1416C567.756 42.1416 568.146 48.1416 567.615 52.4697H585.975C587.553 42.7354 583.35 28.5635 561.459 28.5635C545.459 28.5635 537.6 36.9697 535.49 47.5479C533.271 59.3135 538.115 66.1572 550.568 75.4072C559.225 81.8916 561.068 86.0947 559.881 91.7354C558.959 96.2979 556.35 99.0635 551.756 99.0635C545.334 99.0635 544.146 93.1729 544.803 87.4072H526.053Z" fill="#006AA7"/>
<path d="M586.232 87.4072C584.139 99.5322 589.123 112.626 611.545 112.626C628.326 112.626 636.982 104.579 639.592 93.6572C642.607 80.5635 638.81 72.6416 624.264 62.0791C615.217 55.5947 613.764 52.5791 614.56 48.501C615.342 44.2979 617.576 42.1416 621.498 42.1416C627.935 42.1416 628.326 48.1416 627.795 52.4697H646.154C647.732 42.7354 643.529 28.5635 621.639 28.5635C605.639 28.5635 597.779 36.9697 595.67 47.5479C593.451 59.3135 598.295 66.1572 610.748 75.4072C619.404 81.8916 621.248 86.0947 620.06 91.7354C619.139 96.2979 616.529 99.0635 611.935 99.0635C605.514 99.0635 604.326 93.1729 604.982 87.4072H586.232Z" fill="#006AA7"/>
<path d="M685.221 28.5635C668.971 28.5635 656.768 38.8916 650.096 67.1104C642.346 99.1729 650.486 112.626 671.455 112.626C688.236 112.626 699.908 103.626 707.127 73.126C714.986 39.8604 705.018 28.5635 685.221 28.5635ZM684.439 42.8604C692.564 42.8604 691.908 51.626 687.064 71.5635C681.955 93.2979 678.408 98.3291 672.502 98.3291C665.158 98.3291 665.158 89.2041 669.893 68.9229C674.471 49.7041 678.283 42.8604 684.439 42.8604Z" fill="#006AA7"/>
</svg>
